<?xml version="1.0" encoding="utf-8"?>
<!-- Generator: Adobe Illustrator 24.1.3, SVG Export Plug-In . SVG Version: 6.00 Build 0)  -->
<svg version="1.1" id="Logo" xmlns="http://www.w3.org/2000/svg" xmlns:xlink="http://www.w3.org/1999/xlink" x="0px" y="0px"
	 viewBox="0 0 602.1 154.4" style="enable-background:new 0 0 602.1 154.4;" xml:space="preserve">
<style type="text/css">
	.st0{fill:url(#SVGID_1_);}
	.st1{fill:url(#SVGID_2_);}
	.st2{fill:url(#SVGID_3_);}
	.st3{fill:url(#SVGID_4_);}
	.st4{fill:#8A7987;}
	.st5{fill:#FC5651;}
</style>
<g>
	<g>
		
			<linearGradient id="SVGID_1_" gradientUnits="userSpaceOnUse" x1="485.9015" y1="72.9" x2="485.9015" y2="150.4" gradientTransform="matrix(1 0 0 -1 0 156)">
			<stop  offset="0" style="stop-color:#FFA769"/>
			<stop  offset="0.3703" style="stop-color:#FE845F"/>
			<stop  offset="0.7771" style="stop-color:#FC6355"/>
			<stop  offset="1" style="stop-color:#FC5651"/>
		</linearGradient>
		<path class="st0" d="M511.4,83.1h-27.8c-15.8,0-28.7-12.9-28.7-28.7V34.3c0-15.8,12.9-28.7,28.7-28.7h27.8c3.1,0,5.5,2.5,5.5,5.5
			s-2.5,5.5-5.5,5.5h-27.8c-9.7,0-17.6,7.9-17.6,17.6v20.1c0,9.7,7.9,17.6,17.6,17.6h27.8c3.1,0,5.5,2.5,5.5,5.5
			C517,80.6,514.5,83.1,511.4,83.1z"/>
		
			<linearGradient id="SVGID_2_" gradientUnits="userSpaceOnUse" x1="542.3719" y1="73.6602" x2="542.501" y2="147.5957" gradientTransform="matrix(1 0 0 -1 0 156)">
			<stop  offset="0" style="stop-color:#FFA769"/>
			<stop  offset="0.3703" style="stop-color:#FE845F"/>
			<stop  offset="0.7771" style="stop-color:#FC6355"/>
			<stop  offset="1" style="stop-color:#FC5651"/>
		</linearGradient>
		<path class="st1" d="M532.5,83.1c-1.3,0-2.6-0.5-3.7-1.4c-2.3-2-2.5-5.5-0.5-7.8l19.9-22.6c2-2.3,5.5-2.5,7.8-0.5s2.5,5.5,0.5,7.8
			l-19.9,22.6C535.6,82.5,534.1,83.1,532.5,83.1z"/>
		
			<linearGradient id="SVGID_3_" gradientUnits="userSpaceOnUse" x1="581.0717" y1="73.5927" x2="581.2009" y2="147.5281" gradientTransform="matrix(1 0 0 -1 0 156)">
			<stop  offset="0" style="stop-color:#FFA769"/>
			<stop  offset="0.3703" style="stop-color:#FE845F"/>
			<stop  offset="0.7771" style="stop-color:#FC6355"/>
			<stop  offset="1" style="stop-color:#FC5651"/>
		</linearGradient>
		<path class="st2" d="M591.1,83.1c-1.5,0-3.1-0.6-4.2-1.9L567,58.6c-2-2.3-1.8-5.8,0.5-7.8s5.8-1.8,7.8,0.5l19.9,22.6
			c2,2.3,1.8,5.8-0.5,7.8C593.7,82.7,592.4,83.1,591.1,83.1z"/>
		
			<linearGradient id="SVGID_4_" gradientUnits="userSpaceOnUse" x1="561.7257" y1="73.6265" x2="561.8547" y2="147.562" gradientTransform="matrix(1 0 0 -1 0 156)">
			<stop  offset="0" style="stop-color:#FFA769"/>
			<stop  offset="0.3703" style="stop-color:#FE845F"/>
			<stop  offset="0.7771" style="stop-color:#FC6355"/>
			<stop  offset="1" style="stop-color:#FC5651"/>
		</linearGradient>
		<path class="st3" d="M561.8,43.1c-5.4,0-10.5-2.3-14.1-6.4l-19.3-21.9c-2-2.3-1.8-5.8,0.5-7.8s5.8-1.8,7.8,0.5L556,29.4
			c1.5,1.7,3.6,2.6,5.8,2.6c2.3,0,4.3-0.9,5.8-2.6L587,7.5c2-2.3,5.5-2.5,7.8-0.5s2.5,5.5,0.5,7.8L576,36.7
			C572.4,40.8,567.2,43.1,561.8,43.1z"/>
	</g>
	<g>
		<path class="st4" d="M63,83.1H33.5c-15.5,0-28-12.6-28-28V33.7c0-15.5,12.5-28,28-28H63c1.9,0,3.5,1.6,3.5,3.5s-1.6,3.5-3.5,3.5
			H33.5c-11.6,0-21.1,9.5-21.1,21.1v21.3c0,11.6,9.5,21.1,21.1,21.1H63c1.9,0,3.5,1.6,3.5,3.5S64.9,83.1,63,83.1z"/>
		<path class="st4" d="M218.5,83.1c-1.4,0-2.7-0.9-3.3-2.2l-25.4-66.3c-0.7-1.8-2.4-2-2.8-2l0,0c-0.5,0-2.1,0.1-2.8,2l-25.4,66.3
			c-0.7,1.8-2.7,2.7-4.5,2s-2.7-2.7-2-4.5l25.4-66.3c1.5-3.9,5.2-6.4,9.4-6.4l0,0c4.2,0,7.9,2.5,9.4,6.4l25.4,66.3
			c0.7,1.8-0.2,3.8-2,4.5C219.3,83,218.9,83.1,218.5,83.1z"/>
		<path class="st4" d="M291.2,83.1c-1.1,0-2.1-0.5-2.8-1.4l-47.8-62.3v60.2c0,1.9-1.6,3.5-3.5,3.5s-3.5-1.6-3.5-3.5V9.1
			c0-1.5,1-2.8,2.4-3.3s3,0,3.9,1.2l47.8,62.3V9.1c0-1.9,1.6-3.5,3.5-3.5s3.5,1.6,3.5,3.5v70.5c0,1.5-1,2.8-2.4,3.3
			C292,83.1,291.6,83.1,291.2,83.1z"/>
		<path class="st4" d="M136.7,83.1c-1.9,0-3.5-1.6-3.5-3.5V9.1c0-1.9,1.6-3.5,3.5-3.5s3.5,1.6,3.5,3.5v70.5
			C140.2,81.6,138.7,83.1,136.7,83.1z"/>
		<path class="st4" d="M82.7,83.1c-1.9,0-3.5-1.6-3.5-3.5V9.1c0-1.9,1.6-3.5,3.5-3.5s3.5,1.6,3.5,3.5v70.5
			C86.2,81.6,84.6,83.1,82.7,83.1z"/>
		<path class="st4" d="M365,83.1h-34.9c-12.5,0-22.6-10.1-22.6-22.6V28.3c0-12.5,10.1-22.6,22.6-22.6H365c1.9,0,3.5,1.6,3.5,3.5
			s-1.6,3.5-3.5,3.5h-34.9c-8.6,0-15.6,7-15.6,15.6v32.2c0,8.6,7,15.6,15.6,15.6h31.4V47.9H338c-1.9,0-3.5-1.6-3.5-3.5
			s1.6-3.5,3.5-3.5h27c1.9,0,3.5,1.6,3.5,3.5v35.2C368.5,81.6,366.9,83.1,365,83.1z"/>
		<path class="st4" d="M438.8,12.6h-54c-1.9,0-3.5-1.6-3.5-3.5s1.6-3.5,3.5-3.5h54c1.9,0,3.5,1.6,3.5,3.5S440.7,12.6,438.8,12.6z"/>
		<path class="st4" d="M438.8,83.1H398c-9.2,0-16.7-7.5-16.7-16.7v-8.8c0-9.2,7.5-16.7,16.7-16.7h40.8c1.9,0,3.5,1.6,3.5,3.5
			s-1.6,3.5-3.5,3.5H398c-5.4,0-9.7,4.4-9.7,9.7v8.8c0,5.4,4.4,9.7,9.7,9.7h40.8c1.9,0,3.5,1.6,3.5,3.5
			C442.2,81.6,440.7,83.1,438.8,83.1z"/>
		<path class="st4" d="M136.7,47.9h-54c-1.9,0-3.5-1.6-3.5-3.5s1.6-3.5,3.5-3.5h54c1.9,0,3.5,1.6,3.5,3.5S138.7,47.9,136.7,47.9z"/>
	</g>
</g>
<g>
	<path class="st5" d="M351.8,116.8c0-7.1-5.8-12.9-12.9-12.9h-25.2c-1.9,0-3.4,1.5-3.4,3.4v38.1c0,1.9,1.5,3.4,3.4,3.4
		c1.9,0,3.4-1.5,3.4-3.4v-15.7h18.2l10.3,17.4c0.6,1,1.7,1.7,2.9,1.7c0.6,0,1.2-0.2,1.7-0.5c1.6-1,2.1-3,1.2-4.6l-8.6-14.5
		C348,127.5,351.8,122.6,351.8,116.8z M317,123v-12.3h21.9c3.4,0,6.1,2.8,6.1,6.1c0,3.4-2.8,6.1-6.1,6.1H317V123z"/>
	<path class="st5" d="M501.1,108.5c-1.2-2.8-3.9-4.6-6.9-4.6c-3.1,0-5.7,1.7-6.9,4.6L471.8,144c-0.7,1.7,0,3.7,1.8,4.5
		c0.4,0.2,0.9,0.3,1.3,0.3c1.3,0,2.6-0.8,3.1-2l15.5-35.6c0.1-0.3,0.4-0.5,0.7-0.5c0.4,0,0.6,0.2,0.7,0.5l15.5,35.6
		c0.5,1.2,1.8,2,3.1,2l0,0c0.5,0,0.9-0.1,1.3-0.3c1.7-0.7,2.5-2.7,1.8-4.5L501.1,108.5z"/>
	<path class="st5" d="M536.2,103.9c-1.9,0-3.4,1.5-3.4,3.4v38.1c0,1.9,1.5,3.4,3.4,3.4c1.9,0,3.4-1.5,3.4-3.4v-38.1
		C539.6,105.4,538,103.9,536.2,103.9z"/>
	<path class="st5" d="M593.2,142h-30.1v-34.7c0-1.9-1.5-3.4-3.4-3.4c-1.9,0-3.4,1.5-3.4,3.4v38.1c0,1.9,1.5,3.4,3.4,3.4h33.5
		c1.9,0,3.4-1.5,3.4-3.4C596.6,143.5,595.1,142,593.2,142z"/>
	<path class="st5" d="M404.6,103.9h-34.8c-1.9,0-3.4,1.5-3.4,3.4s1.5,3.4,3.4,3.4h34.8c1.9,0,3.4-1.5,3.4-3.4
		C407.9,105.4,406.4,103.9,404.6,103.9z"/>
	<path class="st5" d="M376.9,129.7h27.6c1.9,0,3.4-1.5,3.4-3.4s-1.5-3.4-3.4-3.4h-27.6c-5.8,0-10.5,4.7-10.5,10.5v4.7
		c0,5.8,4.7,10.5,10.5,10.5h27.6c1.9,0,3.4-1.5,3.4-3.4s-1.5-3.4-3.4-3.4h-27.6c-2.1,0-3.8-1.7-3.8-3.8v-4.7
		C373.2,131.4,374.8,129.7,376.9,129.7z"/>
	<path class="st5" d="M458.8,103.9H424c-1.9,0-3.4,1.5-3.4,3.4s1.5,3.4,3.4,3.4h14v34.7c0,1.9,1.5,3.4,3.4,3.4s3.4-1.5,3.4-3.4
		v-34.7h14c1.9,0,3.4-1.5,3.4-3.4C462.2,105.4,460.7,103.9,458.8,103.9z"/>
</g>
</svg>
